<svg width="166" height="166" viewBox="0 0 166 166" fill="none" xmlns="http://www.w3.org/2000/svg">
<path d="M58.4291 107.248C40.2283 89.0469 27.2805 74.7141 18.3091 63.2414C9.33386 51.7638 4.35886 43.1738 2.07392 36.459C-0.204265 29.7639 0.198035 24.9522 1.96275 20.9862C3.7429 16.9857 6.92678 13.7931 10.3596 10.3603C13.7926 6.92727 16.9856 3.74289 20.9863 1.96269C24.9523 0.197975 29.7639 -0.204334 36.4591 2.07386C43.1739 4.3588 51.7639 9.3338 63.2414 18.309C74.7141 27.2805 89.047 40.2283 107.248 58.429C125.449 76.6298 138.396 90.9626 147.368 102.435C156.343 113.913 161.318 122.503 163.603 129.218C165.881 135.913 165.479 140.725 163.714 144.691C161.934 148.691 158.75 151.884 155.317 155.317C151.884 158.75 148.691 161.934 144.691 163.714C140.725 165.479 135.913 165.881 129.218 163.603C122.503 161.318 113.913 156.343 102.435 147.368C90.9627 138.396 76.6299 125.448 58.4291 107.248Z" fill="#60A5FA" stroke="#60A5FA"/>
</svg>
