<svg width="206" height="71" viewBox="0 0 206 71" fill="none" xmlns="http://www.w3.org/2000/svg">
<path d="M103 69.54C77.2602 69.54 57.9699 68.5606 43.5137 66.792C29.0514 65.0225 19.4595 62.4664 13.0957 59.334C6.7506 56.2107 3.63274 52.5239 2.07618 48.4716C0.506162 44.3841 0.500004 39.8753 0.500004 35.0205C0.500004 30.1655 0.506097 25.656 2.07618 21.5683C3.63274 17.5161 6.75059 13.8293 13.0957 10.706C19.4595 7.57362 29.0514 5.01743 43.5137 3.24802C57.9699 1.47935 77.2602 0.49997 103 0.499969C128.74 0.499969 148.03 1.47935 162.486 3.24802C176.949 5.01743 186.541 7.57362 192.904 10.706C199.249 13.8293 202.367 17.5161 203.924 21.5683C205.494 25.656 205.5 30.1655 205.5 35.0205C205.5 39.8753 205.494 44.3841 203.924 48.4716C202.367 52.5239 199.249 56.2107 192.904 59.334C186.541 62.4664 176.949 65.0225 162.486 66.792C148.03 68.5606 128.74 69.54 103 69.54Z" fill="#60A5FA" stroke="#60A5FA"/>
</svg>
