<svg width="166" height="166" viewBox="0 0 166 166" fill="none" xmlns="http://www.w3.org/2000/svg">
<path d="M107.248 58.4291C125.449 76.6298 138.396 90.9627 147.368 102.435C156.343 113.913 161.318 122.503 163.603 129.218C165.881 135.913 165.479 140.725 163.714 144.691C161.934 148.691 158.75 151.884 155.317 155.317C151.884 158.75 148.691 161.934 144.691 163.714C140.725 165.479 135.913 165.881 129.218 163.603C122.503 161.318 113.913 156.343 102.435 147.368C90.9627 138.396 76.6298 125.449 58.4291 107.248C40.2283 89.047 27.2805 74.7141 18.309 63.2414C9.33381 51.7639 4.35882 43.1739 2.07389 36.4591C-0.204313 29.7639 0.197996 24.9523 1.96271 20.9863C3.74292 16.9856 6.92729 13.7926 10.3603 10.3596C13.7932 6.92677 16.9857 3.74289 20.9862 1.96274C24.9522 0.198028 29.7639 -0.20428 36.459 2.07391C43.1739 4.35885 51.7638 9.33384 63.2414 18.3091C74.7141 27.2805 89.047 40.2283 107.248 58.4291Z" fill="#60A5FA" stroke="#60A5FA"/>
</svg>
