<svg width="166" height="166" viewBox="0 0 166 166" fill="none" xmlns="http://www.w3.org/2000/svg">
<path d="M107.248 107.248C89.0469 125.449 74.7141 138.396 63.2414 147.368C51.7638 156.343 43.1738 161.318 36.459 163.603C29.7639 165.881 24.9522 165.479 20.9862 163.714C16.9857 161.934 13.7931 158.75 10.3603 155.317C6.92727 151.884 3.74289 148.691 1.96269 144.691C0.197975 140.725 -0.204334 135.913 2.07386 129.218C4.3588 122.503 9.3338 113.913 18.309 102.435C27.2805 90.9627 40.2283 76.6298 58.429 58.4291C76.6298 40.2283 90.9626 27.2805 102.435 18.309C113.913 9.33381 122.503 4.35882 129.218 2.07389C135.913 -0.204313 140.725 0.197996 144.691 1.96271C148.691 3.74292 151.884 6.92729 155.317 10.3603C158.75 13.7932 161.934 16.9857 163.714 20.9862C165.479 24.9522 165.881 29.7639 163.603 36.459C161.318 43.1739 156.343 51.7638 147.368 63.2414C138.396 74.7141 125.448 89.047 107.248 107.248Z" fill="#60A5FA" stroke="#60A5FA"/>
</svg>
