<svg width="166" height="166" viewBox="0 0 166 166" fill="none" xmlns="http://www.w3.org/2000/svg">
<path d="M58.4291 58.4291C76.6298 40.2283 90.9627 27.2805 102.435 18.3091C113.913 9.33386 122.503 4.35886 129.218 2.07392C135.913 -0.204265 140.725 0.198035 144.691 1.96275C148.691 3.7429 151.884 6.92678 155.317 10.3596C158.75 13.7926 161.934 16.9856 163.714 20.9863C165.479 24.9523 165.881 29.7639 163.603 36.4591C161.318 43.1739 156.343 51.7639 147.368 63.2414C138.396 74.7141 125.449 89.047 107.248 107.248C89.047 125.449 74.7141 138.396 63.2414 147.368C51.7639 156.343 43.1739 161.318 36.4591 163.603C29.7639 165.881 24.9523 165.479 20.9863 163.714C16.9856 161.934 13.7926 158.75 10.3596 155.317C6.92677 151.884 3.74289 148.691 1.96274 144.691C0.198028 140.725 -0.20428 135.913 2.07391 129.218C4.35885 122.503 9.33384 113.913 18.3091 102.435C27.2805 90.9627 40.2283 76.6299 58.4291 58.4291Z" fill="#60A5FA" stroke="#60A5FA"/>
</svg>
