<svg width="71" height="206" viewBox="0 0 71 206" fill="none" xmlns="http://www.w3.org/2000/svg">
<path d="M0.5 103C0.499994 77.2602 1.47938 57.9699 3.24805 43.5137C5.01746 29.0514 7.57365 19.4595 10.7061 13.0957C13.8293 6.7506 17.5161 3.63274 21.5684 2.07618C25.6559 0.506162 30.1647 0.500004 35.0195 0.500004C39.8745 0.500004 44.384 0.506097 48.4717 2.07618C52.5239 3.63274 56.2107 6.75059 59.334 13.0957C62.4664 19.4595 65.0226 29.0514 66.792 43.5137C68.5607 57.9699 69.54 77.2602 69.54 103C69.54 128.74 68.5607 148.03 66.792 162.486C65.0226 176.949 62.4664 186.541 59.334 192.904C56.2107 199.249 52.5239 202.367 48.4717 203.924C44.384 205.494 39.8745 205.5 35.0195 205.5C30.1647 205.5 25.6559 205.494 21.5684 203.924C17.5161 202.367 13.8293 199.249 10.7061 192.904C7.57365 186.541 5.01746 176.949 3.24805 162.486C1.47938 148.03 0.500006 128.74 0.5 103Z" fill="#60A5FA" stroke="#60A5FA"/>
</svg>
