<svg width="382" height="67" viewBox="0 0 382 67" fill="none" xmlns="http://www.w3.org/2000/svg">
<path d="M381.44 5.51269C380.65 3.67513 379.861 1.83757 379.071 1.52588e-05C372.618 2.00502 366.541 3.83333 360.117 5.77749C300.891 23.4928 241.739 39.1634 182.697 38.091C128.821 37.5217 75.1876 23.177 21.372 6.11415C14.9716 4.06855 8.92853 2.1461 2.51117 0.0317421C1.6741 1.84815 0.837067 3.66455 0 5.48096C5.81216 9.00012 11.3097 12.2668 17.2349 15.5995C66.6277 43.5687 122.66 65.4078 182.285 66.088C247.678 67.1725 309.015 43.9073 363.917 15.0536C369.916 11.9067 375.514 8.82487 381.44 5.51269Z" fill="#0070FF"/>
</svg>
