<svg width="382" height="67" viewBox="0 0 382 67" fill="none" xmlns="http://www.w3.org/2000/svg">
<path d="M-5.36442e-06 60.6117C0.789539 62.4493 1.57908 64.2868 2.36863 66.1244C8.82176 64.1194 14.8993 62.2911 21.323 60.3469C80.5487 42.6317 139.701 26.961 198.743 28.0334C252.619 28.6027 306.252 42.9475 360.068 60.0103C366.468 62.0559 372.511 63.9783 378.929 66.0927C379.766 64.2763 380.603 62.4599 381.44 60.6435C375.628 57.1243 370.13 53.8576 364.205 50.5249C314.812 22.5557 258.779 0.716632 199.155 0.0364504C133.762 -1.04807 72.4251 22.2171 17.5232 51.0709C11.5236 54.2177 5.92607 57.2995 -5.36442e-06 60.6117Z" fill="#0070FF"/>
</svg>
